<svg version="1.1" xmlns="http://www.w3.org/2000/svg" xmlns:xlink="http://www.w3.org/1999/xlink" width="553.12451171875" height="548"><defs/><g><g transform="translate(-6,-6) scale(1,1)"><path fill="#C0C0C0" stroke="none" d="M 265 23 L 308.88818359375 23 Q 318.88818359375 23 318.88818359375 33 L 318.88818359375 53 Q 318.88818359375 63 308.88818359375 63 L 265 63 Q 255 63 255 53 L 255 33 Q 255 23 265 23 Z" opacity="0.2"/></g><g transform="translate(-6,-6) scale(1,1)"><path fill="#ffffff" stroke="none" d="M 258 16 L 301.88818359375 16 Q 311.88818359375 16 311.88818359375 26 L 311.88818359375 46 Q 311.88818359375 56 301.88818359375 56 L 258 56 Q 248 56 248 46 L 248 26 Q 248 16 258 16 Z"/></g><g transform="translate(-6,-6) scale(1,1)"><path fill="none" stroke="#000000" d="M 258 16 L 301.88818359375 16 Q 311.88818359375 16 311.88818359375 26 L 311.88818359375 46 Q 311.88818359375 56 301.88818359375 56 L 258 56 Q 248 56 248 46 L 248 26 Q 248 16 258 16 Z" stroke-miterlimit="10"/></g><g transform="translate(-6,-6) scale(1,1)"><g><path fill="none" stroke="none"/><text fill="#000000" stroke="none" font-family="Arial" font-size="13px" font-style="normal" font-weight="bold" text-decoration="none" x="255.365966796875" y="35.5">planning</text></g></g><g transform="translate(-6,-6) scale(1,1)"><path fill="#C0C0C0" stroke="none" d="M 249 511 L 324.71533203125 511 Q 334.71533203125 511 334.71533203125 521 L 334.71533203125 541 Q 334.71533203125 551 324.71533203125 551 L 249 551 Q 239 551 239 541 L 239 521 Q 239 511 249 511 Z" opacity="0.2"/></g><g transform="translate(-6,-6) scale(1,1)"><path fill="#ffffff" stroke="none" d="M 242 504 L 317.71533203125 504 Q 327.71533203125 504 327.71533203125 514 L 327.71533203125 534 Q 327.71533203125 544 317.71533203125 544 L 242 544 Q 232 544 232 534 L 232 514 Q 232 504 242 504 Z"/></g><g transform="translate(-6,-6) scale(1,1)"><path fill="none" stroke="#000000" d="M 242 504 L 317.71533203125 504 Q 327.71533203125 504 327.71533203125 514 L 327.71533203125 534 Q 327.71533203125 544 317.71533203125 544 L 242 544 Q 232 544 232 534 L 232 514 Q 232 504 242 504 Z" stroke-miterlimit="10"/></g><g transform="translate(-6,-6) scale(1,1)"><g><path fill="none" stroke="none"/><text fill="#000000" stroke="none" font-family="Arial" font-size="13px" font-style="normal" font-weight="bold" text-decoration="none" x="238.674072265625" y="523.5">main - release</text></g></g><g transform="translate(-6,-6) scale(1,1)"><path fill="#C0C0C0" stroke="none" d="M 33 31 L 162.15625 31 Q 172.15625 31 172.15625 41 L 172.15625 61 Q 172.15625 71 162.15625 71 L 33 71 Q 23 71 23 61 L 23 41 Q 23 31 33 31 Z" opacity="0.2"/></g><g transform="translate(-6,-6) scale(1,1)"><path fill="#ffffff" stroke="none" d="M 26 24 L 155.15625 24 Q 165.15625 24 165.15625 34 L 165.15625 54 Q 165.15625 64 155.15625 64 L 26 64 Q 16 64 16 54 L 16 34 Q 16 24 26 24 Z"/></g><g transform="translate(-6,-6) scale(1,1)"><path fill="none" stroke="#000000" d="M 26 24 L 155.15625 24 Q 165.15625 24 165.15625 34 L 165.15625 54 Q 165.15625 64 155.15625 64 L 26 64 Q 16 64 16 54 L 16 34 Q 16 24 26 24 Z" stroke-miterlimit="10"/></g><g transform="translate(-6,-6) scale(1,1)"><g><path fill="none" stroke="none"/><text fill="#000000" stroke="none" font-family="Arial" font-size="13px" font-style="normal" font-weight="bold" text-decoration="none" x="25.168701171875" y="43.5">development_backend</text></g></g><g transform="translate(-6,-6) scale(1,1)"><path fill="#C0C0C0" stroke="none" d="M 417 31 L 546.12451171875 31 Q 556.12451171875 31 556.12451171875 41 L 556.12451171875 61 Q 556.12451171875 71 546.12451171875 71 L 417 71 Q 407 71 407 61 L 407 41 Q 407 31 417 31 Z" opacity="0.2"/></g><g transform="translate(-6,-6) scale(1,1)"><path fill="#ffffff" stroke="none" d="M 410 24 L 539.12451171875 24 Q 549.12451171875 24 549.12451171875 34 L 549.12451171875 54 Q 549.12451171875 64 539.12451171875 64 L 410 64 Q 400 64 400 54 L 400 34 Q 400 24 410 24 Z"/></g><g transform="translate(-6,-6) scale(1,1)"><path fill="none" stroke="#000000" d="M 410 24 L 539.12451171875 24 Q 549.12451171875 24 549.12451171875 34 L 549.12451171875 54 Q 549.12451171875 64 539.12451171875 64 L 410 64 Q 400 64 400 54 L 400 34 Q 400 24 410 24 Z" stroke-miterlimit="10"/></g><g transform="translate(-6,-6) scale(1,1)"><g><path fill="none" stroke="none"/><text fill="#000000" stroke="none" font-family="Arial" font-size="13px" font-style="normal" font-weight="bold" text-decoration="none" x="409.87646484375" y="43.5">development_frontend</text></g></g><g transform="translate(-6,-6) scale(1,1)"><path fill="#C0C0C0" stroke="none" d="M 265 295 L 304 295 Q 314 295 314 305 L 314 325 Q 314 335 304 335 L 265 335 Q 255 335 255 325 L 255 305 Q 255 295 265 295 Z" opacity="0.2"/></g><g transform="translate(-6,-6) scale(1,1)"><path fill="#ffffff" stroke="none" d="M 258 288 L 297 288 Q 307 288 307 298 L 307 318 Q 307 328 297 328 L 258 328 Q 248 328 248 318 L 248 298 Q 248 288 258 288 Z"/></g><g transform="translate(-6,-6) scale(1,1)"><path fill="none" stroke="#000000" d="M 258 288 L 297 288 Q 307 288 307 298 L 307 318 Q 307 328 297 328 L 258 328 Q 248 328 248 318 L 248 298 Q 248 288 258 288 Z" stroke-miterlimit="10"/></g><g transform="translate(-6,-6) scale(1,1)"><g><path fill="none" stroke="none"/><text fill="#000000" stroke="none" font-family="Arial" font-size="13px" font-style="normal" font-weight="bold" text-decoration="none" x="258.34912109375" y="307.5">testing</text></g></g><g transform="translate(-6,-6) scale(1,1)"><path fill="#C0C0C0" stroke="none" d="M 279 48.5 C 279 43.2532944 283.2532944 39 288.5 39 C 293.7467056 39 298 43.2532944 298 48.5 C 298 53.7467056 293.7467056 58 288.5 58 C 283.2532944 58 279 53.7467056 279 48.5 Z" opacity="0.2"/></g><g transform="translate(-6,-6) scale(1,1)"><path fill="#000000" stroke="none" d="M 272 41.5 C 272 36.2532944 276.2532944 32 281.5 32 C 286.7467056 32 291 36.2532944 291 41.5 C 291 46.7467056 286.7467056 51 281.5 51 C 276.2532944 51 272 46.7467056 272 41.5 Z"/></g><g transform="translate(-6,-6) scale(1,1)"><path fill="#C0C0C0" stroke="none" d="M 287 531.5 C 287 524.59644 292.59644 519 299.5 519 C 306.40356 519 312 524.59644 312 531.5 C 312 538.40356 306.40356 544 299.5 544 C 292.59644 544 287 538.40356 287 531.5 Z" opacity="0.2"/></g><g transform="translate(-6,-6) scale(1,1)"><path fill="none" stroke="#000000" d="M 280 524.5 C 280 517.59644 285.59644 512 292.5 512 C 299.40356 512 305 517.59644 305 524.5 C 305 531.40356 299.40356 537 292.5 537 C 285.59644 537 280 531.40356 280 524.5 Z" stroke-miterlimit="10"/></g><g transform="translate(-6,-6) scale(1,1)"><path fill="#000000" stroke="none" d="M 285 524.5 C 285 520.357864 288.357864 517 292.5 517 C 296.642136 517 300 520.357864 300 524.5 C 300 528.642136 296.642136 532 292.5 532 C 288.357864 532 285 528.642136 285 524.5 Z"/></g><g transform="translate(-6,-6) scale(1,1)"><path fill="#C0C0C0" stroke="none" d="M 247 174 L 284.5 151 L 321 174 L 284.5 196 L 247 174" opacity="0.2"/></g><g transform="translate(-6,-6) scale(1,1)"><path fill="#ffffff" stroke="none" d="M 240 166.5 L 277 144 L 314 166.5 L 277 189 L 240 166.5"/></g><g transform="translate(-6,-6) scale(1,1)"><path fill="none" stroke="#000000" d="M 240 166.5 L 277 144 L 314 166.5 L 277 189 L 240 166.5 L 240 166.5" stroke-miterlimit="10"/></g><g transform="translate(-6,-6) scale(1,1)"><path fill="#C0C0C0" stroke="none" d="M 55 184.5 L 92.5 159 L 129 184.5 L 92.5 209 L 55 184.5" opacity="0.2"/></g><g transform="translate(-6,-6) scale(1,1)"><path fill="#ffffff" stroke="none" d="M 48 177 L 85 152 L 122 177 L 85 202 L 48 177"/></g><g transform="translate(-6,-6) scale(1,1)"><path fill="none" stroke="#000000" d="M 48 177 L 85 152 L 122 177 L 85 202 L 48 177 L 48 177" stroke-miterlimit="10"/></g><g transform="translate(-6,-6) scale(1,1)"><path fill="#C0C0C0" stroke="none" d="M 439 174 L 476.5 151 L 513 174 L 476.5 196 L 439 174" opacity="0.2"/></g><g transform="translate(-6,-6) scale(1,1)"><path fill="#ffffff" stroke="none" d="M 432 166.5 L 469 144 L 506 166.5 L 469 189 L 432 166.5"/></g><g transform="translate(-6,-6) scale(1,1)"><path fill="none" stroke="#000000" d="M 432 166.5 L 469 144 L 506 166.5 L 469 189 L 432 166.5 L 432 166.5" stroke-miterlimit="10"/></g><g transform="translate(-6,-6) scale(1,1)"><path fill="none" stroke="#000000" d="M 122 65 L 242 143" stroke-miterlimit="10"/></g><g transform="translate(-6,-6) scale(1,1)"><path fill="none" stroke="#000000" d="M 231.1850320024328 140.9909038819417 L 242 143 L 235.7733082797393 133.93201730147015" stroke-miterlimit="10"/></g><g transform="translate(-6,-6) scale(1,1)"><path fill="none" stroke="#000000" d="M 440 65 L 314 143" stroke-miterlimit="10"/></g><g transform="translate(-6,-6) scale(1,1)"><path fill="none" stroke="#000000" d="M 320.4252691323706 134.07162295954043 L 314 143 L 324.8566673247471 141.2300354241486" stroke-miterlimit="10"/></g><g transform="translate(-6,-6) scale(1,1)"><path fill="none" stroke="#000000" d="M 277 190 L 277 287" stroke-miterlimit="10"/></g><g transform="translate(-6,-6) scale(1,1)"><path fill="none" stroke="#000000" d="M 272.790482243984 276.83732514237585 L 277 287 L 281.209517756016 276.83732514237585" stroke-miterlimit="10"/></g><g transform="translate(-6,-6) scale(1,1)"><g><path fill="none" stroke="none"/><text fill="#000000" stroke="none" font-family="Arial" font-size="13px" font-style="normal" font-weight="normal" text-decoration="none" x="253" y="170">Merge</text></g></g><g transform="translate(-6,-6) scale(1,1)"><path fill="none" stroke="#000000" d="M 247 288 L 123 203" stroke-miterlimit="10"/></g><g transform="translate(-6,-6) scale(1,1)"><path fill="none" stroke="#000000" d="M 133.76240936145734 205.27388318442607 L 123 203 L 129.00229442205833 212.21805086072578" stroke-miterlimit="10"/></g><g transform="translate(-6,-6) scale(1,1)"><path fill="none" stroke="#000000" d="M 305 287 L 437 190" stroke-miterlimit="10"/></g><g transform="translate(-6,-6) scale(1,1)"><path fill="none" stroke="#000000" d="M 431.30338617661135 199.41002608642384 L 437 190 L 426.3179924788282 192.62577899253344" stroke-miterlimit="10"/></g><g transform="translate(-6,-6) scale(1,1)"><path fill="#C0C0C0" stroke="none" d="M 247 426.5 L 283.5 399 L 319 426.5 L 283.5 453 L 247 426.5" opacity="0.2"/></g><g transform="translate(-6,-6) scale(1,1)"><path fill="#ffffff" stroke="none" d="M 240 419 L 276 392 L 312 419 L 276 446 L 240 419"/></g><g transform="translate(-6,-6) scale(1,1)"><path fill="none" stroke="#000000" d="M 240 419 L 276 392 L 312 419 L 276 446 L 240 419 L 240 419" stroke-miterlimit="10"/></g><g transform="translate(-6,-6) scale(1,1)"><path fill="none" stroke="#000000" d="M 277 447 L 278 503" stroke-miterlimit="10"/></g><g transform="translate(-6,-6) scale(1,1)"><path fill="none" stroke="#000000" d="M 273.6097058345733 492.91410305718824 L 278 503 L 282.0273993468339 492.76378710161214" stroke-miterlimit="10"/></g><g transform="translate(-6,-6) scale(1,1)"><path fill="none" stroke="#000000" d="M 277 329 L 276 391" stroke-miterlimit="10"/></g><g transform="translate(-6,-6) scale(1,1)"><path fill="none" stroke="#000000" d="M 271.95492247510094 380.7707601544613 L 276 391 L 280.37286311288267 380.90653339055456" stroke-miterlimit="10"/></g><g transform="translate(-6,-6) scale(1,1)"><g><path fill="none" stroke="none"/><text fill="#000000" stroke="none" font-family="Arial" font-size="13px" font-style="normal" font-weight="normal" text-decoration="none" x="253" y="418">Merge</text></g></g><g transform="translate(-6,-6) scale(1,1)"><g><path fill="none" stroke="none"/><text fill="#000000" stroke="none" font-family="Arial" font-size="13px" font-style="normal" font-weight="normal" text-decoration="none" x="445" y="170">Merge</text></g></g><g transform="translate(-6,-6) scale(1,1)"><g><path fill="none" stroke="none"/><text fill="#000000" stroke="none" font-family="Arial" font-size="13px" font-style="normal" font-weight="normal" text-decoration="none" x="61" y="178">Merge</text></g></g><g transform="translate(-6,-6) scale(1,1)"><path fill="none" stroke="#000000" d="M 86 151 L 89 65" stroke-miterlimit="10"/></g><g transform="translate(-6,-6) scale(1,1)"><path fill="none" stroke="#000000" d="M 92.85266245270603 75.30325152684865 L 89 65 L 84.43874472302589 75.00974276883656" stroke-miterlimit="10"/></g><g transform="translate(-6,-6) scale(1,1)"><path fill="none" stroke="#000000" d="M 470 143 L 473 65" stroke-miterlimit="10"/></g><g transform="translate(-6,-6) scale(1,1)"><path fill="none" stroke="#000000" d="M 476.81582433383 75.31695132552979 L 473 65 L 468.4030090188142 74.99338150572149" stroke-miterlimit="10"/></g></g></svg>